<svg xmlns="http://www.w3.org/2000/svg" width="36" height="36.002" viewBox="0 0 36 36.002">
  <path id="路径_5" data-name="路径 5" d="M5.919,31.351a18.37,18.37,0,0,1-3.871-5.107A17.366,17.366,0,0,1,.113,19.2,17.875,17.875,0,0,1,4.758,5.92,17.739,17.739,0,0,1,14.893.319a17.33,17.33,0,0,1,2.04-.246A17.927,17.927,0,0,1,34.774,24.659a17.541,17.541,0,0,1-8.549,9.4A17.319,17.319,0,0,1,19.186,36q-.618.042-1.218.042A17.76,17.76,0,0,1,5.919,31.351ZM17.111,1.417a17.857,17.857,0,0,0-1.937.211,16.586,16.586,0,0,0-13.721,17.4,16.288,16.288,0,0,0,1.762,6.552A16.66,16.66,0,0,0,25.554,32.9a16.275,16.275,0,0,0,7.953-8.664,16.515,16.515,0,0,0-.562-13.7A16.81,16.81,0,0,0,18.16,1.379q-.516,0-1.049.038ZM19.08,33.009V31.316H17.637c-.027.329-.04,1.233-.035,1.691h-.7V29.343h.739a13.045,13.045,0,0,0-.035,1.479,4.619,4.619,0,0,0,.906.035c.195,0,.39-.008.571,0V29.343h.739v3.663Zm2.463-3.7c.568-.171,2.09-1.072,2.814-.46a.891.891,0,0,1-.034,1.3.878.878,0,0,1,1.02.915c-.012,1.065-1.811,1.314-2.569,1.655-.389-1.16-.788-2.31-1.232-3.416ZM22.916,30.9c.1.4.26.749.383,1.128.449-.218,1.2-.264,1.3-.74a.673.673,0,0,0-.169-.6.546.546,0,0,0-.353-.11,5.553,5.553,0,0,0-1.164.323Zm-.527-1.373a9.621,9.621,0,0,1,.351.919c.46-.2,1.208-.23,1.231-.775.017-.356-.212-.476-.509-.476a2.333,2.333,0,0,0-1.074.329ZM11.022,31.843a2.027,2.027,0,0,1,.1-.46c.941-.666,1.873-1.342,2.816-2.008-.6-.218-1.279-.363-1.9-.562.008-.181.093-.283.106-.46.919.222,1.762.513,2.674.739a2.585,2.585,0,0,0-.106.424c-.923.695-1.894,1.344-2.815,2.042a21.608,21.608,0,0,0,2.113.6c0,.2-.093.306-.106.493C12.937,32.391,12,32.1,11.022,31.843Zm15.587-3.381c-.4-.153.008-.444.246-.7.21-.23.4-.42.493-.528-.624-1.648.283-3.322.6-4.719a7.749,7.749,0,0,1,.351,3.945,8.791,8.791,0,0,1,3.66-1.55c-.934,1.179-1.6,2.461-3.483,2.6a1.871,1.871,0,0,1-.293-.011,1.285,1.285,0,0,0-.446.011c-.255.07-.617.569-.843.775-.06.054-.117.2-.214.2a.13.13,0,0,1-.07-.02Zm-17.875-.95c-2.456.169-3.272-1.3-4.257-2.6a8.167,8.167,0,0,1,3.658,1.585,8.656,8.656,0,0,1,.317-4.016c.369,1.347,1.214,3.145.633,4.719a3.586,3.586,0,0,0,.493.564c.17.186.669.568.246.7a.153.153,0,0,1-.047.007c-.3,0-.734-.836-1.043-.958Zm2.5-2.395A9.866,9.866,0,0,1,9.016,14.2a9.485,9.485,0,0,1,4.822-5.036A9.842,9.842,0,0,1,25.132,24.9,9.375,9.375,0,0,1,23.8,26.032a9.786,9.786,0,0,1-5.525,1.831q-.169.005-.334.005a9.583,9.583,0,0,1-6.7-2.751Zm2.182-.424c.277.115.3.506.633.6a6.532,6.532,0,0,0,1.337,0h1.373v-.633c-.421.008-.856,0-1.29,0-.258,0-.516-.006-.771-.006-.441,0-.873.008-1.282.041Zm5.948.6h2.744a1.752,1.752,0,0,0,.316-.316c.077-.08.329-.294.211-.316H19.362Zm2.6-1.3a7.031,7.031,0,0,0,1.336,0c.138-.038.23-.194.354-.317.077-.077.366-.242.211-.316H12.183c.211.23.36.558.669.633a7.546,7.546,0,0,0,1.3,0Zm-1.794-1.3h3.272a5.772,5.772,0,0,0,1.091,0c.134-.037.23-.2.352-.317.1-.1.358-.247.246-.317H20.206c-.083.141-.012.434-.035.633Zm-9.256-.6c.254.128.375.519.7.6a5.89,5.89,0,0,0,1.056,0h3.272v-.634c-.635.008-1.283,0-1.931,0-.378,0-.758-.005-1.134-.005-.671,0-1.331.008-1.969.04Zm-.493-1.163c-.043.07-.24.23-.106.247H25.837c-.862-1.439-1.884-3.022-2.851-4.473-.62,1-1.236,2-1.9,2.958-1.026-1.19-1.985-2.451-3.025-3.627C17.006,17.207,16.073,18.5,15,19.659c-.632-.988-1.24-2-1.9-2.959-.849,1.381-1.838,2.857-2.672,4.225ZM17.6,8.669a3.29,3.29,0,0,0-1.724,5.737,3.419,3.419,0,0,0,2.182.81,3.314,3.314,0,0,0,3.308-3.305,3.468,3.468,0,0,0-.775-2.078,3.118,3.118,0,0,0-2.513-1.19,4.158,4.158,0,0,0-.478.027ZM28.828,25.257q.375-.721.809-1.409a3.742,3.742,0,0,1-.6-2.221,10.623,10.623,0,0,0,.144-1.826A4.58,4.58,0,0,1,30.2,23.248c.832-.742,1.609-1.9,3.064-2.145a6.786,6.786,0,0,1-.95,1.866,2.812,2.812,0,0,1-2.252,1.057,15.373,15.373,0,0,0-.88,1.372c-.162-.005-.175-.159-.354-.141ZM6.412,24.025A2.542,2.542,0,0,1,4.686,23.5,4.778,4.778,0,0,1,3.176,21.1c1.47.277,2.162,1.334,3.064,2.183A4.794,4.794,0,0,1,7.221,19.8c.138,1.435.355,3.114-.422,4.015.172.362.425.723.633,1.092a.79.79,0,0,1,.142.352.63.63,0,0,0-.283.142q-.473-.667-.879-1.377Zm24.649-2.339a.411.411,0,0,0-.158-.02c.067-.484.1-1.008.176-1.479-1.093-.6-1.3-2.077-1.762-3.311a4.362,4.362,0,0,1,2.077,2.6,5.822,5.822,0,0,1,1.9-2.888c.187,1.878-.52,3.166-1.865,3.628-.056.5-.119.984-.175,1.479a.391.391,0,0,1-.066.006.47.47,0,0,1-.127-.02ZM5.18,21.7c-.065-.476-.119-.962-.175-1.444-1.344-.509-1.979-1.73-1.935-3.629-.007-.03.015-.033.036-.035a5.308,5.308,0,0,1,1.9,2.888,2.827,2.827,0,0,0,.388-.81,3.593,3.593,0,0,1,1.723-1.8c-.464,1.226-.665,2.714-1.762,3.311.071.48.1,1,.175,1.479a.405.405,0,0,0-.157.02.47.47,0,0,1-.128.021.392.392,0,0,1-.064,0ZM31.255,17.65V16.1a4.164,4.164,0,0,1-1.971-1.2c-.24-.306-.41-.712-.668-1.022-.046-.056-.3-.175-.176-.247a4.692,4.692,0,0,1,2.781,1.8,5.379,5.379,0,0,1,.843-3.382c.031-.005.033.013.035.036a10.391,10.391,0,0,1,.421,1.549,3.013,3.013,0,0,1-.914,2.4v1.584c-.1.008-.17.041-.275.041a.528.528,0,0,1-.076-.008ZM4.828,17.616c-.114-.452.153-1.065,0-1.55-.059-.2-.329-.32-.421-.46a3.239,3.239,0,0,1-.493-2.042,15.265,15.265,0,0,1,.422-1.515c.719.689.814,2,.879,3.347A4.892,4.892,0,0,1,8,13.634c.1.051-.1.189-.176.282s-.2.208-.281.317c-.172.236-.279.527-.46.74a3.617,3.617,0,0,1-1.9,1.092v1.584a.53.53,0,0,1-.077.006,2.525,2.525,0,0,1-.275-.04Zm25.16-5.354c-1.522.1-2.52-1.02-3.236-1.831a5.384,5.384,0,0,1,3.026,1.092c.041-1.063-.472-2.479.246-3.206.03-.006.033.015.035.037a5.638,5.638,0,0,1,.774,1.83,2.708,2.708,0,0,1-.493,1.937c.1.467.276.851.352,1.338a.545.545,0,0,0-.281.106,9.4,9.4,0,0,1-.423-1.3Zm-24.246,1.2a10.144,10.144,0,0,1,.351-1.3A2.92,2.92,0,0,1,5.6,10.149a6.611,6.611,0,0,1,.774-1.832c.733.645.286,2.137.247,3.206a5.683,5.683,0,0,1,3.027-1.092c.109.077-.122.161-.211.246-.277.264-.55.643-.879.919a3.064,3.064,0,0,1-2.113.633q-.187.676-.383,1.339a1.886,1.886,0,0,0-.319-.109ZM28.19,8.987a4.241,4.241,0,0,1-.527.142,5.311,5.311,0,0,1-2.987-.843c.721-.642,2.3-.272,3.132,0-.251-.835-1.2-1.777-.774-3.064.843.689,2,1.963,1.444,3.524.185.388.489.661.668,1.057a1.685,1.685,0,0,0-.246.175,6.314,6.314,0,0,1-.707-.991ZM7.256,9.8c.234-.342.465-.689.7-1.022a1.963,1.963,0,0,1-.141-.422c-.21-1.575.836-2.395,1.547-3.135.031-.007.034.014.038.036.39,1.272-.466,2.145-.81,3.029.843-.244,2.418-.666,3.132,0-.893.44-2.122,1.21-3.447.7-.3.29-.433.741-.774.986a.508.508,0,0,0-.25-.175ZM25.167,6.8a3.5,3.5,0,0,1-2.04.388c-.528-.058-1.051-.4-1.514-.423.557-.689,1.846-.719,3.027-.6-.383-.851-1.522-1.433-1.339-2.853,1.065.674,2.283,1.379,2.113,3.17.244.319.689.624.843.915-.055.077-.127.132-.176.211a7.638,7.638,0,0,1-.914-.81Zm-15.025.6a10.707,10.707,0,0,1,.879-.88c-.2-1.822,1.038-2.5,2.077-3.2.28,1.176-.9,2.152-1.372,2.853,1.208-.121,2.474-.087,3.1.563-.419.067-.958.393-1.477.46A3.321,3.321,0,0,1,11.3,6.8c-.363.223-.591.582-.949.81a.718.718,0,0,0-.211-.213ZM18.9,4.443a5.966,5.966,0,0,1,2.216-.493,2.433,2.433,0,0,1,2.221,1.444c-.415.035-.831.056-1.235.056-1.387,0-2.63-.245-3.2-1.007ZM13.1,5.394a2.581,2.581,0,0,1,2.78-1.444,16.558,16.558,0,0,1,1.685.493,4.142,4.142,0,0,1-3.21,1.005c-.4,0-.823-.021-1.255-.054Z" transform="translate(-0.071 -0.038)" fill="#fff"/>
</svg>
